<svg width="42" height="42" viewBox="0 0 42 42" fill="none" xmlns="http://www.w3.org/2000/svg">
<rect width="42" height="42" rx="10.031" fill="#66AFFF"/>
<rect x="2.88196" y="2.93945" width="36.1781" height="36.1781" rx="8.64055" fill="#007AFF"/>
<path d="M18.7696 10.081C19.4718 7.83646 22.6485 7.83646 23.3507 10.081L25.0173 15.4083C25.2522 16.1592 25.8403 16.7473 26.5912 16.9823L31.9185 18.6489C34.1631 19.3511 34.1631 22.5277 31.9185 23.2299L26.5912 24.8965C25.8403 25.1315 25.2522 25.7196 25.0173 26.4705L23.3507 31.7978C22.6485 34.0423 19.4718 34.0423 18.7696 31.7978L17.103 26.4705C16.8681 25.7196 16.28 25.1315 15.529 24.8965L10.2017 23.2299C7.95718 22.5277 7.95719 19.3511 10.2018 18.6489L15.529 16.9823C16.28 16.7473 16.8681 16.1592 17.103 15.4083L18.7696 10.081Z" fill="#F2F2F7"/>
</svg>
