<svg width="188" height="42" viewBox="0 0 188 42" fill="none" xmlns="http://www.w3.org/2000/svg">
<path fill-rule="evenodd" clip-rule="evenodd" d="M34.3267 4.84209C31.5686 2.19523 28.4112 0.646744 24.724 0.132478C22.8557 -0.128168 20.1987 0.00474743 18.3279 0.452429C15.8032 1.05653 13.0275 2.51576 10.9975 4.30607C9.18494 5.90458 7.51513 8.23024 6.63786 10.3781L6.36067 11.0566L5.53789 11.3336C3.43897 12.04 0.652092 13.3081 0.197604 13.7636C-0.178763 14.1408 0.00729129 14.7599 0.545839 14.9229C0.639997 14.9514 0.996821 14.8985 1.3388 14.8054C2.24462 14.5587 4.91138 13.9059 5.291 13.8379L5.61661 13.7796L5.56337 14.1467C4.81647 19.297 6.42001 24.3673 10.01 28.207C10.8088 29.0615 11.7163 29.8358 12.7358 30.533C13.6018 31.1252 13.9692 31.1902 14.3181 30.813C14.7047 30.3949 14.6179 30.1615 13.7447 29.2706C12.375 27.8732 11.3174 26.296 10.608 24.5928C9.43676 21.7807 9.1392 18.6206 9.76922 15.685C9.98733 14.6688 10.5148 13.1401 10.6769 13.0545C11.0819 12.8407 16.5873 12.7296 19.1136 12.8842C30.4122 13.5757 38.6454 17.5174 38.6454 22.235C38.6454 24.4907 36.2775 26.9123 31.9841 29.0472C31.1215 29.4761 30.3854 29.8971 30.2938 30.0137C30.0783 30.2883 30.0891 30.5572 30.3266 30.834C30.487 31.0208 30.5872 31.0598 30.89 31.0531C31.5462 31.0386 34.2928 29.9624 36.3917 28.8973C40.2133 26.9581 42.6154 24.6524 43.5028 22.0716C43.7506 21.3506 43.772 21.2042 43.7752 20.202C43.7782 19.2891 43.7474 19.0138 43.5832 18.4872C42.7112 15.6898 40.0388 13.3247 35.7581 11.5618C32.7697 10.331 29.3952 9.5507 25.1234 9.1026C23.5019 8.93254 17.7586 8.95897 16.1087 9.14408C14.7594 9.29549 13.1998 9.50628 12.8699 9.5819C12.7058 9.61945 12.6896 9.60406 12.759 9.47684C12.923 9.17629 14.2955 7.77511 14.9217 7.26904C17.8042 4.93937 21.0971 3.76521 24.7477 3.76521C28.1101 3.76521 31.3569 4.8236 33.9692 6.77125C35.0177 7.55303 35.1801 7.59853 35.5733 7.22094C36.0758 6.73855 35.846 6.30007 34.3267 4.84209ZM56.8943 23.506C56.8654 23.506 56.8418 21.4922 56.8418 19.0309C56.8418 16.5696 56.8136 14.5583 56.7792 14.5613C56.6678 14.5712 55.4818 15.0994 54.8385 15.4256C53.9552 15.8735 52.6569 16.7518 52.3353 17.1189C52.2544 17.2112 52.1855 17.272 52.1268 17.3413C51.7601 17.7749 51.7908 18.546 51.769 29.468L51.7462 40.9089L52.1059 41.0635C53.7567 41.7726 58.1761 42.2038 60.4114 41.8739C64.8466 41.2192 67.6766 38.676 68.5833 34.5305C68.7996 33.541 68.7986 30.4736 68.5815 29.445C68.0461 26.9083 67.1519 25.3629 65.551 24.2078C64.3086 23.3111 63.0144 22.9236 61.0497 22.8596C59.5389 22.8104 58.5206 22.9372 57.5203 23.2988C57.2049 23.4128 56.9232 23.506 56.8943 23.506ZM118.442 40.8929V27.7243C118.442 20.4816 118.433 14.5564 118.421 14.5573C118.41 14.5581 118.089 14.6876 117.707 14.845C116.326 15.4151 114.7 16.4014 114.023 17.08C113.47 17.6344 113.434 17.8516 113.434 20.644C113.434 22.6433 113.414 23.0978 113.324 23.0636C112.496 22.7451 109.447 22.7743 108.161 23.113C104.561 24.0619 102.261 26.6544 101.624 30.4841C101.464 31.4409 101.44 33.4461 101.576 34.3384C102.228 38.5882 104.669 41.1169 108.806 41.8256C111.192 42.2343 114.984 41.9063 117.962 41.0335L118.442 40.8929ZM98.3269 27.1865C97.5068 24.7365 95.5021 23.2527 92.4564 22.8414C91.6972 22.7388 89.0536 22.7422 88.1429 22.8468C87.0996 22.9667 85.6381 23.2677 85.5188 23.3873C85.2405 23.6662 85.1591 25.6605 85.3758 26.8938C85.4314 27.2102 85.4502 27.228 85.7244 27.2223C85.8839 27.219 86.3525 27.1529 86.7656 27.0754C87.1788 26.9979 88.0731 26.892 88.753 26.8402C92.2264 26.5751 93.8154 27.4654 93.924 29.7378L93.944 30.156L93.6101 30.144C93.4265 30.1373 92.7504 30.1043 92.1077 30.0705C91.2262 30.0243 90.6726 30.0423 89.854 30.144C86.4305 30.5694 84.4235 31.9261 83.8015 34.2353C83.6383 34.8407 83.6209 35.0654 83.6571 36.095C83.7211 37.9168 84.1296 38.9728 85.1793 40.0296C86.4982 41.3575 88.6078 41.9872 91.7498 41.9907C93.8039 41.9929 96.306 41.636 98.2706 41.0605L98.8412 40.8935L98.8015 34.9392C98.7592 28.595 98.7504 28.4516 98.3269 27.1865ZM135.511 24.7189C134.632 23.8615 133.734 23.3704 132.34 22.9839C131.541 22.7626 129.125 22.7033 128.179 22.8818C124.677 23.5426 122.342 25.9416 121.577 29.6644C121.139 31.7928 121.238 34.3157 121.832 36.1787C122.672 38.8113 124.557 40.6871 127.165 41.4871C129.649 42.2491 133.411 42.1372 135.936 41.2261L136.611 40.9826L136.708 40.4531C136.832 39.7806 136.834 38.121 136.712 37.542C136.661 37.2983 136.61 37.0882 136.598 37.0752C136.587 37.0622 136.206 37.1483 135.753 37.2664C134.059 37.7076 133.104 37.8386 131.547 37.8443C130.263 37.8489 130.006 37.8263 129.421 37.6576C128.548 37.4058 128.019 37.1113 127.49 36.5828C126.905 35.9989 126.294 34.6967 126.289 34.0247C126.289 33.8867 126.616 33.8784 132.005 33.8784H137.721L137.785 33.6483C137.82 33.5218 137.849 32.5525 137.849 31.4944C137.848 29.9272 137.82 29.4465 137.695 28.9013C137.259 27.0011 136.646 25.8266 135.511 24.7189ZM152.308 23.5124C151.669 23.2463 150.741 23.0276 149.635 22.8825C148.273 22.7038 146.239 22.7207 145.303 22.9183C144.31 23.1283 144.058 23.2169 143.191 23.6598C141.87 24.3349 140.858 25.537 140.527 26.8222C140.339 27.5528 140.354 28.8403 140.56 29.647C141.035 31.5102 142.218 32.533 145.403 33.8364C148.264 35.007 148.491 35.183 148.491 36.2258C148.491 37.1427 148.004 37.6576 146.922 37.8844C146.038 38.0697 144.03 37.9343 142.726 37.6014C142.231 37.4752 140.675 37.0115 140.431 36.9178C140.147 36.8087 140.003 39.5278 140.244 40.442C140.352 40.8555 140.356 40.8589 140.988 41.1237C142.325 41.6839 144.233 41.9923 146.36 41.9921C148.583 41.9918 149.996 41.6162 151.424 40.6459C152.392 39.9876 153.163 38.8547 153.467 37.6435C153.574 37.2177 153.593 36.8483 153.559 35.9287C153.494 34.1884 153.181 33.3914 152.164 32.3727C151.4 31.6066 150.67 31.183 148.617 30.3121C145.748 29.0958 145.497 28.8982 145.589 27.9345C145.642 27.3862 145.939 27.0641 146.569 26.8736C147.581 26.5675 150.27 26.7735 152.055 27.294L152.74 27.4935L152.806 27.0264C152.892 26.4182 152.892 24.765 152.806 24.1634C152.739 23.6924 152.738 23.6912 152.308 23.5124ZM169.504 23.6823C168.647 23.2968 167.72 23.028 166.752 22.884C165.946 22.7641 163.586 22.7173 163.015 22.8098C161.405 23.0708 159.986 23.6753 158.885 24.5689C157.297 25.8586 156.148 28.1165 155.83 30.5732C155.687 31.6717 155.777 34.2105 155.993 35.1877C156.179 36.0308 156.645 37.3082 156.979 37.8934C157.737 39.2195 158.862 40.3085 160.165 40.9769C161.716 41.7723 163.046 42.0361 165.172 41.9698C167.121 41.9092 168.434 41.6362 169.724 41.0242C170.181 40.8074 170.194 40.7922 170.072 40.6218C169.408 39.6938 168.666 38.3092 168.336 37.3839C168.295 37.2674 168.197 37.2823 167.551 37.5038C166.9 37.727 166.674 37.7609 165.627 37.7925C164.599 37.8234 164.365 37.805 163.871 37.6547C162.089 37.1123 161.069 35.4096 160.952 32.7828C160.826 29.9545 161.685 27.9808 163.364 27.2365C164.534 26.7181 166.446 26.7964 168.05 27.4285C168.179 27.4795 168.298 27.5211 168.314 27.5211C168.33 27.5211 168.408 27.3236 168.487 27.082C168.717 26.3766 169.302 25.1835 169.723 24.5598C169.937 24.2421 170.101 23.9715 170.088 23.9583C170.075 23.9451 169.812 23.8209 169.504 23.6823ZM187.2 27.7721C186.088 25.0671 183.98 23.3963 181.02 22.8742C180.154 22.7215 178.135 22.7283 177.26 22.8868C173.864 23.5015 171.522 25.809 170.706 29.3428C170.199 31.5369 170.276 34.1856 170.904 36.1787C171.728 38.7929 173.509 40.6788 175.911 41.4799C178.551 42.3606 181.863 42.0874 183.976 40.8148C186.64 39.2107 187.989 36.3932 188 32.4145C188.005 30.5447 187.763 29.1415 187.2 27.7721ZM76.001 23.1884C75.9837 23.171 75.8257 23.1234 75.6499 23.0825C75.3346 23.0092 72.733 22.9903 72.4089 23.059C72.317 23.0784 72.1573 23.1124 72.0538 23.1346L71.8656 23.1748L71.908 41.6083L72.2419 41.6841C72.6774 41.7831 75.3971 41.8029 76.2276 41.7132L76.8745 41.6433L76.8752 37.2381C76.8756 34.8151 76.9129 32.4141 76.9581 31.9023C77.101 30.285 77.5564 29.1644 78.4244 28.2945C79.3413 27.3758 80.4396 27.0299 82.1025 27.1364C82.7944 27.1807 82.9567 27.1688 82.9941 27.0711C83.1149 26.7555 83.2355 25.1372 83.1912 24.4262C83.1372 23.5613 83.1189 23.2635 82.9634 23.1423C82.8816 23.0784 82.7617 23.0636 82.5785 23.0406C82.3289 23.0094 81.6852 23.0012 81.1481 23.0226C79.4696 23.089 78.3141 23.6274 77.1353 24.8923L76.5495 25.521L76.4975 25.2036C76.4332 24.811 76.044 23.2314 76.001 23.1884ZM126.328 29.8842C126.625 28.2834 127.604 27.1112 128.961 26.7298C129.268 26.6436 129.668 26.611 130.177 26.6307C131.631 26.6867 132.513 27.3299 132.973 28.6715C133.059 28.9228 133.155 29.3691 133.185 29.6632L133.239 30.1979H126.27L126.328 29.8842ZM175.535 32.4145C175.535 29.0764 176.535 27.1843 178.467 26.8626C179.09 26.7589 179.261 26.7574 179.834 26.8514C180.515 26.9629 181.305 27.3679 181.677 27.7965C181.846 27.9901 182.091 28.3763 182.223 28.6546C183.084 30.4685 183.059 34.4767 182.176 36.207C181.522 37.4892 180.212 38.0977 178.583 37.8753C176.513 37.5926 175.535 35.8408 175.535 32.4145ZM106.829 30.4906C107.262 28.5274 108.31 27.3471 109.952 26.9731C110.55 26.837 112.392 26.8657 113.038 27.0211L113.434 27.1164V37.6197L112.912 37.7356C112.609 37.8031 111.937 37.8503 111.306 37.8484C109.712 37.8435 108.958 37.5849 108.074 36.7399C107.497 36.1886 107.086 35.4198 106.867 34.4851C106.679 33.6816 106.656 31.2762 106.829 30.4906ZM26.6231 34.378C26.6255 28.1868 26.611 27.3699 26.4958 27.2052C26.246 26.8478 25.9545 26.9475 24.0576 28.0394L22.2854 29.0596V41.8249H24.169C26.0769 41.8249 26.2909 41.7951 26.5188 41.4976C26.5969 41.3957 26.6211 39.7384 26.6231 34.378ZM57.208 27.4037C57.4095 27.3266 57.8133 27.2115 58.1053 27.1481C58.8017 26.9966 60.2723 26.9901 60.8191 27.1359C62.1516 27.4915 63.0088 28.4663 63.4084 30.0807C63.6288 30.971 63.604 33.2745 63.3644 34.1711C62.8201 36.2081 61.6675 37.3874 59.8388 37.7782C59.2251 37.9093 57.4947 37.8995 57.0296 37.7621L56.8418 37.7067V27.5439L57.208 27.4037ZM21.1168 41.8249V35.8022C21.1168 32.4898 21.0886 29.782 21.0542 29.785C20.904 29.7977 18.3272 31.3568 18.2251 31.4967C18.1328 31.6232 18.1119 32.5752 18.1119 36.6518C18.1119 41.5094 18.1165 41.6542 18.2733 41.7383C18.3654 41.7877 19.0111 41.8249 19.7758 41.8249H21.1168ZM88.8496 34.2266C89.1647 33.9494 89.8619 33.6631 90.509 33.5454C91.0025 33.4557 93.82 33.5115 93.9214 33.6131C93.9585 33.6502 93.9787 34.6175 93.9664 35.7627L93.944 37.8448L93.6519 37.9157C93.4912 37.9547 92.7212 37.9938 91.9407 38.0028C90.682 38.0171 90.4557 37.9981 89.9375 37.8344C88.8501 37.4909 88.3394 36.9066 88.2518 35.9056C88.1976 35.2862 88.4495 34.5786 88.8496 34.2266Z" fill="#AEAEB2"/>
</svg>
