<svg width="89" height="42" viewBox="0 0 89 42" fill="none" xmlns="http://www.w3.org/2000/svg">
<path fill-rule="evenodd" clip-rule="evenodd" d="M35.1885 5.18723C32.6895 2.91169 29.0757 1.11151 25.518 0.370045C24.7517 0.209918 23.0182 0.0524655 21.5814 0.0120158C17.8956 -0.092284 15.4631 0.467993 11.8253 2.25948C9.64905 3.33122 8.19111 4.38258 6.41358 6.16136C1.85021 10.7282 -0.288602 16.8474 0.418096 23.3167C0.737264 26.2381 1.6936 29.1932 3.03612 31.4076C3.30431 31.8499 3.53639 32.2544 3.63902 32.4546C3.67513 32.5252 3.69527 32.5703 3.69527 32.583C3.69527 32.828 5.59632 35.0852 6.66765 36.1121C10.5156 39.8007 15.034 41.733 20.3832 41.9777C26.5505 42.2598 32.4316 39.8596 36.6433 35.3416C38.9762 32.8391 40.2102 30.7745 41.2641 27.6114C43.5728 20.6811 42.0871 13.008 37.3477 7.38521C37.1021 7.09404 36.8382 6.79251 36.6138 6.54546C36.403 6.31313 36.2273 6.1286 36.1348 6.04536L35.8008 5.74349L35.1885 5.18723ZM12.2611 4.19571C12.2335 3.81361 15.355 2.56903 17.388 2.1515C18.272 1.96964 19.6729 1.84662 20.959 1.8376L23.0751 1.82255L22.9568 2.61115C22.6722 4.50995 21.3772 8.64149 20.9098 9.1426C20.7481 9.31576 20.361 9.19007 18.9881 8.5188C16.4719 7.28827 12.2901 4.60087 12.2611 4.19571ZM23.0127 7.20469C23.4713 5.79798 23.9447 4.04962 24.0647 3.32019C24.138 2.87324 24.2245 2.4761 24.2964 2.23541C24.3419 2.0833 24.3815 1.99371 24.4082 1.99371C24.4773 1.99371 24.7847 2.04386 25.0914 2.10537L25.6491 2.21669L25.5339 4.4588C25.4343 6.39904 24.9744 10.5503 24.8443 10.6824C24.7757 10.7526 22.4539 10.0218 22.3081 9.8844C22.2371 9.81754 22.5541 8.61174 23.0127 7.20469ZM27.0379 8.81098C27.1822 7.65031 27.3519 5.83409 27.4153 4.77504C27.5332 2.80103 27.621 2.61416 28.2193 3.06345C28.4341 3.22458 28.5492 3.7618 28.6869 5.24573C28.9199 7.75695 29.124 9.19074 29.443 10.5587C29.583 11.1587 29.6638 11.6832 29.6226 11.7244C29.4664 11.8808 26.9378 11.3439 26.8585 11.1377C26.813 11.019 26.8938 9.97198 27.0379 8.81098ZM30.9004 11.3737C30.5964 10.2451 30.0501 6.79151 29.9375 5.28852C29.8793 4.51195 29.8829 3.87646 29.9454 3.87646C30.0078 3.87646 30.5006 4.12083 31.0405 4.41935C32.3366 5.13641 34.0513 6.53209 35.4231 7.98627C36.873 9.52302 38.5796 12.07 38.3786 12.3966C38.2917 12.5374 33.5489 12.3759 32.0662 12.1817C31.0993 12.055 31.0803 12.0419 30.9004 11.3737ZM13.1162 14.5739C12.4148 12.2532 11.3974 6.86505 11.3974 5.47071C11.3974 5.12806 11.5391 5.18957 12.4005 5.90696C13.7654 7.04356 15.7595 8.29884 17.8851 9.35922C19.0107 9.92084 20.014 10.3805 20.1147 10.3805C20.3927 10.3805 20.3372 10.68 19.8978 11.5539C18.688 13.9598 16.2886 17.737 15.1732 18.9916L14.7455 19.4726L14.3347 18.3925C14.1087 17.7985 13.8237 16.9658 13.7012 16.5422C13.5787 16.1187 13.3154 15.2328 13.1162 14.5739ZM7.94958 7.15555L8.6038 6.5478C9.22934 5.96647 9.51466 5.80634 9.51466 6.03667C9.51466 6.3937 10.084 9.99204 10.3102 11.0651C10.7688 13.2394 11.5549 16.1283 12.1619 17.8714C12.4807 18.786 12.7138 19.5619 12.6799 19.5956C12.6462 19.6294 12.3244 19.5632 11.9651 19.4489C11.2899 19.2333 10.9705 19.1036 9.30072 18.3654L8.31655 17.9305L8.31313 17.1078C8.31129 16.6555 8.23699 15.7847 8.14798 15.1729C8.05915 14.5612 7.978 12.5069 7.96788 10.6081L7.94958 7.15555ZM3.95836 12.6935C4.38266 11.7966 5.88749 9.38897 6.30953 8.93166C6.47693 8.75047 6.54421 9.0383 6.64241 10.3554C6.85861 13.2561 7.05342 16.9661 6.99576 17.0881C6.92589 17.2359 5.07365 16.0197 4.00574 15.1251C3.63626 14.8156 3.41964 14.6518 3.3522 14.4405C3.25626 14.1396 3.46193 13.7428 3.95836 12.6935ZM52.8237 18.0853L52.7322 9.43912L52.3043 9.40736C51.6587 9.35922 50.2739 9.75168 49.2663 10.2682L48.3677 10.7285V18.3283C48.3677 26.5376 48.4188 27.1019 49.3265 28.8977C50.0728 30.3746 51.8429 31.8552 53.4121 32.3152C56.4731 33.2125 59.4826 32.5205 61.5208 30.4509C63.3356 28.6082 64.038 26.675 63.9149 23.8616C63.8509 22.3994 63.7773 22.0958 63.2072 20.9422C62.5017 19.5144 61.2262 18.1973 59.9699 17.5982C59.5665 17.406 58.6037 17.1536 57.8306 17.038C56.2148 16.7956 55.0182 16.9778 53.6337 17.6768L52.8237 18.0853ZM87.4025 13.3407C88.0794 12.771 88.4195 11.9249 88.5407 10.5089L88.6396 9.35354L86.6037 9.36892C82.3225 9.40134 79.7681 10.7338 78.3272 13.686C77.3558 15.6757 77.2723 16.6472 77.3301 25.2713L77.3791 32.5455L81.739 32.6415L81.8292 21.4202L83.712 21.3764C84.7474 21.3527 85.7706 21.2417 85.9857 21.1307C86.6155 20.8045 87.0119 19.9767 87.0763 18.8528L87.1351 17.8259L81.7436 17.7316V16.6137C81.7436 15.9986 81.8286 15.1582 81.9324 14.746L82.1212 13.9959L83.8684 14.0948C85.8126 14.2052 86.5664 14.044 87.4025 13.3407ZM16.2701 19.6598C17.8634 17.5772 19.5722 14.8233 21.1512 11.7925C21.5776 10.9745 21.5865 10.9712 22.4765 11.3132C22.8314 11.4496 23.4582 11.6475 23.8696 11.7531L24.6175 11.945L24.5102 12.7536C24.382 13.7204 23.3754 17.7661 22.7634 19.7758L22.3257 21.2123L20.4986 21.097C18.8661 20.994 17.1897 20.7877 16.0497 20.5494C15.6558 20.4672 15.6576 20.4601 16.2701 19.6598ZM26.2011 13.9986C26.345 13.3056 26.4958 12.6851 26.5364 12.6193C26.577 12.5537 27.384 12.6567 28.3298 12.8483L30.0493 13.1966L30.4056 14.3987C30.7775 15.653 31.6231 17.97 32.0311 18.8528C32.2382 19.3008 32.2346 19.3917 32.0037 19.5662C31.3408 20.066 24.692 21.3176 24.4844 20.9816C24.444 20.9164 24.5925 20.2562 24.8146 19.5147C25.2923 17.9192 25.8381 15.7473 26.2011 13.9986ZM33.1128 18.1371C32.5786 16.9206 31.4331 13.5834 31.5081 13.4624C31.5437 13.4049 32.136 13.4112 32.8243 13.4771C33.5127 13.5426 35.2371 13.6519 36.6562 13.7204L39.2365 13.8444L39.4137 14.5084C39.5901 15.1696 39.5873 15.1753 38.716 15.9184C37.367 17.0694 35.0178 18.4841 33.861 18.8425C33.5231 18.9471 33.4297 18.8589 33.1128 18.1371ZM2.47585 16.9464C2.48729 16.8698 2.49423 16.8023 2.49473 16.7562C2.49799 16.4563 2.68561 16.4924 3.18179 16.8879C4.27752 17.7614 5.23737 18.4116 6.22705 18.9508C6.88912 19.3115 7.3298 19.6692 7.37108 19.8798C7.50647 20.5694 7.97424 23.6664 7.97424 23.8726C7.97424 24.2403 7.40343 23.8181 5.87102 22.3165C4.19947 20.6784 2.24986 17.8734 2.39837 17.3201C2.42988 17.2034 2.45813 17.064 2.47585 16.9464ZM35.488 20.2181C36.5873 19.7073 38.9845 18.2026 39.6335 17.6156C40.0229 17.2633 40.0694 17.2563 40.2207 17.5267C40.4834 17.9961 40.5623 22.2252 40.3358 23.6941C40.0735 25.3937 39.6752 26.8117 39.4603 26.8117C39.0985 26.8117 36.4106 23.9054 35.4825 22.5107C34.9442 21.7017 34.5038 20.9576 34.5038 20.8573C34.5038 20.757 34.9466 20.4692 35.488 20.2181ZM71.9518 21.8481C74.5726 21.8481 75.5581 20.9669 75.7177 18.4808L75.7981 17.2268L74.1924 17.2456C73.3093 17.2559 72.2401 17.3311 71.8164 17.4127C69.5233 17.854 67.7134 19.1474 66.7503 21.0321C65.9164 22.6648 65.7901 23.5286 65.6994 28.2238L65.6142 32.6311H70.0622L70.1451 27.5392C70.1908 24.7384 70.2856 22.3125 70.3559 22.1477C70.4636 21.8956 70.7166 21.8481 71.9518 21.8481ZM9.1054 22.9179C8.94695 21.906 8.78005 20.9047 8.73484 20.6928C8.63146 20.2104 8.74169 20.2121 9.87854 20.7125C10.3845 20.9355 11.2413 21.2457 11.7825 21.4022C12.3237 21.5586 12.7667 21.7532 12.7667 21.8344C12.7667 22.03 9.77449 24.7578 9.56004 24.7578C9.46845 24.7578 9.26394 23.9298 9.1054 22.9179ZM52.9034 21.2584L53.6736 20.9529C54.71 20.542 56.5684 20.6276 57.5512 21.1317C58.4366 21.5857 58.8633 22.1192 59.3321 23.3598C59.7569 24.4837 59.7094 25.8841 59.1884 27.5956C58.8291 28.776 58.4721 29.0304 57.1701 29.0341C55.2577 29.0398 53.6269 27.9614 53.0863 26.3337C52.8747 25.6962 52.8185 24.9795 52.8551 23.3755L52.9034 21.2584ZM2.2329 23.1318C2.17832 22.3786 2.09834 21.5894 2.05539 21.3774C1.94256 20.8222 2.17966 20.9054 2.64166 21.5837C3.24272 22.4666 5.17903 24.4092 6.40639 25.3606C7.48006 26.1929 7.48784 26.2046 7.13298 26.4921C6.70066 26.8421 4.14264 27.8387 3.67646 27.8387C3.4738 27.8387 3.27147 27.6555 3.15714 27.368C2.74052 26.321 2.32667 24.4242 2.2329 23.1318ZM24.7675 23.0108C28.0606 22.6451 30.776 22.1119 31.9592 21.5981C33.0117 21.1411 33.2044 21.2297 33.9719 22.5214C34.2362 22.9667 34.5124 23.4036 34.6985 23.6757C34.7853 23.8027 34.8525 23.894 34.8898 23.9335C34.9289 23.9749 34.9881 24.0438 35.0588 24.1293C35.1998 24.3005 35.3865 24.5382 35.5507 24.7578C36.156 25.5675 37.7081 27.0591 38.5175 27.6094L39.178 28.058L38.6979 28.3097C37.844 28.757 35.8276 29.3935 34.1615 29.7408C31.7514 30.2439 26.053 30.3723 23.2957 29.9862C22.1675 29.8277 21.2116 29.6656 21.1714 29.6251C21.1311 29.585 21.4164 28.8004 21.8056 27.8825C22.1212 27.1377 22.5623 26.0462 22.8881 25.2081C22.9639 25.0132 23.0334 24.832 23.0937 24.6722L23.6745 23.1318L24.7675 23.0108ZM11.211 25.039C11.5748 24.7702 12.3213 24.0963 12.8704 23.5413C13.4193 22.9867 13.8862 22.5328 13.908 22.5328C13.9299 22.5328 14.3196 23.2451 14.774 24.116C15.2286 24.9868 15.9756 26.3364 16.4337 27.1146C16.8921 27.8932 17.2324 28.5648 17.1899 28.6072C16.9444 28.8529 10.538 26.0619 10.5457 25.7122C10.548 25.6109 10.8473 25.3081 11.211 25.039ZM19.1891 27.9149C18.5857 27.124 16.1899 22.8935 16.1899 22.6193C16.1899 22.5498 16.4017 22.5364 16.6605 22.5899C16.9194 22.6431 18.1325 22.7805 19.3563 22.8948C19.9741 22.9526 20.5419 23.0101 20.9566 23.0559C21.3634 23.1007 21.6231 23.1345 21.6387 23.1465C21.6704 23.1703 21.5817 23.4464 21.442 23.76C21.3022 24.0735 20.8659 25.1386 20.4726 26.1271C19.6382 28.2245 19.5348 28.3685 19.1891 27.9149ZM5.2357 28.7152C5.84762 28.5133 6.81039 28.0847 7.37518 27.7628C7.93997 27.4412 8.46598 27.1935 8.54387 27.2132C8.62193 27.2326 8.98815 28.4404 9.35805 29.8969C9.72778 31.3538 10.384 33.6484 10.8163 34.9963C11.0869 35.84 11.3125 36.6015 11.4328 37.0642C11.5046 37.3407 11.5389 37.5105 11.5225 37.5269C11.4164 37.6328 8.92397 35.7564 8.05981 34.9197C7.17444 34.0626 5.77399 32.3898 5.2128 31.5186C4.37614 30.2202 3.86492 29.229 3.99379 29.1558C4.065 29.1157 4.62377 28.9174 5.2357 28.7152ZM11.0462 31.5186C10.7247 30.4843 10.1993 28.299 10.1993 27.9971C10.1993 27.9075 10.7191 28.0944 11.3546 28.4123C12.9411 29.2063 15.4222 30.1674 16.7401 30.4983C17.5327 30.6972 17.9532 30.7828 18.0644 31.0158C18.1934 31.2859 17.9065 31.7546 17.3021 32.829C15.9126 35.2988 13.7995 38.4505 13.5328 38.4505C13.286 38.4505 12.74 37.0665 11.9117 34.3427C11.6112 33.3542 11.2217 32.0835 11.0462 31.5186ZM26.8228 32.0635C30.9398 32.1688 33.6683 31.9124 36.2666 31.1759C37.0385 30.9573 37.7264 30.7714 37.7949 30.7634C38.1313 30.723 36.288 33.0754 34.8472 34.5249C32.9511 36.4324 29.9965 38.4505 29.1002 38.4505C28.9448 38.4505 28.4217 38.1296 27.938 37.7375C26.7378 36.7647 22.1804 32.1655 22.1804 31.9274C22.1804 31.8037 22.348 31.777 22.6511 31.8522C22.9099 31.9164 24.7872 32.0113 26.8228 32.0635ZM16.5993 37.5907C17.8114 35.7785 19.613 32.7077 19.613 32.4539C19.613 32.0692 20.0808 32.3523 20.6135 33.0597C21.2833 33.9486 24.801 37.558 26.012 38.5983C26.2502 38.8029 26.4534 39.0008 26.5862 39.1519C26.7098 39.2926 26.7722 39.3929 26.7447 39.4203C26.4117 39.7533 23.4471 40.1564 21.3246 40.1571C19.0956 40.1578 16.0236 39.7222 15.6546 39.3531C15.5776 39.2759 16.0026 38.4829 16.5993 37.5907Z" fill="#AEAEB2"/>
</svg>
