<svg width="197" height="42" viewBox="0 0 197 42" fill="none" xmlns="http://www.w3.org/2000/svg">
<path fill-rule="evenodd" clip-rule="evenodd" d="M14.2016 12.2064L2.04044 0H0V2.04882L12.157 14.2605L0 26.4721V28.5209L2.23732 28.5131L14.2975 16.4097L26.3639 28.5209H28.5988V26.6489L22.5678 20.5085C19.2507 17.1313 16.5367 14.3214 16.5367 14.2642C16.5367 14.2071 19.2507 11.4363 22.5678 8.10698L28.5988 2.05351V0H26.3391L24.2695 2.1C23.1312 3.2549 20.4003 6.00151 18.2007 8.20309L14.2016 12.2064ZM14.2193 3.90698C14.1523 3.90698 13.2253 3.02791 12.1594 1.95349L10.2213 0H6.13183L10.1166 4.00465C12.3082 6.20721 14.1905 8.0093 14.2994 8.0093C14.4084 8.0093 16.2906 6.20721 18.4822 4.00465L22.467 0L18.1904 0.00566648L16.2657 1.95622C15.207 3.02908 14.2862 3.90698 14.2193 3.90698ZM8.26837 14.2575L5.93377 11.9204C4.64974 10.6348 2.78946 8.82645 1.79959 7.90167L0 6.2201V10.2632L1.9455 12.2093C3.01552 13.2796 3.891 14.2103 3.891 14.2773C3.891 14.3443 3.01552 15.2642 1.9455 16.3214L0 18.2434V22.5616L8.26837 14.2575ZM28.5926 10.2558L28.5957 8.25349C28.5975 7.15231 28.5323 6.25116 28.4512 6.25116C28.3699 6.25116 26.5102 8.05345 24.3182 10.2564L20.3328 14.2616L28.5988 22.5616V18.4669L24.5166 14.3552L28.5926 10.2558ZM48.0894 15.7287C48.0367 15.6758 47.4077 13.5437 46.6914 10.9907L45.3893 6.34884L43.5169 6.29297C41.7061 6.23905 41.6411 6.25175 41.5387 6.68367C41.4806 6.92922 40.7355 10.2509 39.8827 14.0651C39.03 17.8793 38.2857 21.1977 38.2285 21.4395C38.1265 21.8703 38.159 21.8791 39.8582 21.8791C41.0711 21.8791 41.6172 21.8056 41.6755 21.6349C41.7214 21.5007 42.1903 19.4349 42.7177 17.0446C43.2449 14.6541 43.7202 12.6992 43.7737 12.7002C43.8272 12.7014 44.449 14.7449 45.1552 17.2419L46.4397 21.7814L49.7075 21.8883L50.7659 18.221C51.348 16.2038 51.9497 14.122 52.1028 13.5947C52.2855 12.9655 52.4297 12.7305 52.5221 12.911C52.5995 13.0622 53.0874 15.1419 53.6067 17.5326L54.5504 21.8791H56.2633C57.7823 21.8791 57.9759 21.8394 57.9759 21.5276C57.9759 21.0266 54.9022 7.21951 54.6728 6.6907C54.4956 6.28164 54.361 6.25116 52.7341 6.25116C51.2664 6.25116 50.9573 6.30606 50.8083 6.59302C50.7106 6.78114 50.0805 8.93506 49.4079 11.3799C48.7353 13.8246 48.142 15.7817 48.0894 15.7287ZM76.0118 21.6349C74.2932 17.3888 69.7744 6.69597 69.6197 6.50883C69.4783 6.3377 68.9205 6.25116 67.9606 6.25116H66.5145L66.0569 7.27674C65.0174 9.60609 60.1159 21.4837 60.1159 21.6736C60.1159 21.8027 60.7945 21.8791 61.9435 21.8791H63.7711L64.7441 19.4372H71.2864L72.2393 21.8791H74.1751C75.6465 21.8791 76.0869 21.8205 76.0118 21.6349ZM91.2397 10.9806C91.2468 8.90009 90.1044 7.37676 88.0339 6.70633C87.3049 6.47035 85.9889 6.36896 82.781 6.30215C80.427 6.25312 78.4353 6.28027 78.355 6.36232C78.2746 6.44436 78.2091 9.96924 78.2091 14.1954V21.8791H81.711V16.214L84.3374 16.219L85.2572 17.6328C86.8395 20.0647 87.806 21.1619 88.8829 21.7492L89.8984 22.3032L91.5439 20.9241C91.921 20.6082 92.2119 20.3644 92.269 20.3167C92.3513 20.2479 91.9855 19.9098 91.4564 19.5654C90.5412 18.9699 89.5358 17.8949 88.5196 16.4251L88.0578 15.7572L88.5305 15.4484C90.4299 14.2071 91.233 12.8829 91.2397 10.9806ZM97.9559 11.6987L97.7613 6.34884L94.3567 6.23593V21.8791H97.8586V18.9791C97.8586 16.4177 97.9003 16.0415 98.2145 15.7559C98.4102 15.5781 98.6119 15.4326 98.6631 15.4326C98.7141 15.4326 99.4514 16.2456 100.301 17.2391C102.469 19.773 102.921 20.2928 103.695 21.1459L104.376 21.8957L108.712 21.7814L105.041 17.4837C103.022 15.12 101.368 13.0835 101.365 12.9581C101.362 12.8329 101.437 12.701 101.531 12.6651C101.625 12.6293 102.785 11.5816 104.109 10.3371C105.433 9.09251 106.888 7.74167 107.343 7.33515C107.798 6.92883 108.17 6.51879 108.17 6.42385C108.17 6.32891 107.174 6.25116 105.958 6.25116H103.746L101.928 7.96047C100.928 8.90068 99.6251 10.1263 99.0327 10.6842L97.9559 11.6987ZM138.536 9.36424L138.422 6.34884L132.183 6.29726C128.752 6.26894 125.884 6.30567 125.812 6.37873C125.739 6.45178 125.679 7.15348 125.679 7.938V9.36444L130.251 9.47442L130.354 21.8791H133.845L133.948 9.47442L138.536 9.36424ZM154.671 12.825C154.172 9.59104 152.452 7.49436 149.658 6.7159C148.881 6.49945 147.335 6.37326 144.599 6.30313L140.66 6.20194V21.9168L144.988 21.8455C149.269 21.7751 149.331 21.7681 150.53 21.2153C153.501 19.8461 155.217 16.3696 154.671 12.825ZM170.426 21.7138C170.426 21.5267 164.533 7.26698 164.189 6.62096C164.023 6.30957 163.766 6.25116 162.563 6.25116C161.64 6.25116 161.062 6.33966 160.928 6.50121C160.815 6.63873 160.006 8.4627 159.131 10.5547C156.196 17.5734 154.473 21.7351 154.473 21.8074C154.473 21.8468 155.327 21.8791 156.371 21.8791H158.27L159.177 19.3395H165.715L166.687 21.7814L168.557 21.8373C169.602 21.8685 170.426 21.8142 170.426 21.7138ZM181.71 9.36444V6.25116H175.419C171.959 6.25116 169.07 6.30977 168.999 6.38146C168.928 6.45296 168.869 7.15348 168.869 7.938V9.36444L173.441 9.47442L173.544 21.8791H177.035L177.138 9.47442L181.71 9.36444ZM192.277 12.2093C191.036 9.20093 189.934 6.62975 189.829 6.49535C189.708 6.34005 189.125 6.25116 188.227 6.25116C187.329 6.25116 186.746 6.34005 186.625 6.49535C186.487 6.67234 181.166 19.2264 180.209 21.6349C180.135 21.8205 180.577 21.8791 182.047 21.8791H183.983L184.935 19.4372L191.375 19.3304L192.454 21.8791H196.286L195.409 19.7791C194.927 18.624 193.517 15.2177 192.277 12.2093ZM123.636 9.66977L123.75 6.44651H111.088V9.77291L123.636 9.66977ZM81.7509 11.4451C81.7193 10.5951 81.7384 9.7821 81.7935 9.63812C81.9125 9.32635 85.0356 9.27692 86.2829 9.56721C87.7912 9.91806 88.2652 11.4396 87.1574 12.3755C86.4662 12.9594 85.4856 13.1343 83.3647 13.0515L81.8083 12.9907L81.7509 11.4451ZM144.162 18.7535V9.32087L146.14 9.45781C148.291 9.60647 149.222 9.90047 150.043 10.6901C151.337 11.9346 151.636 14.5603 150.702 16.4777C149.836 18.254 148.781 18.7398 145.767 18.7488L144.162 18.7535ZM66.1441 16.0674C66.1423 15.987 66.5493 14.8442 67.0483 13.5279C67.5472 12.2116 67.9789 11.1349 68.0077 11.1349C68.1007 11.1349 69.8434 15.7312 69.8434 15.9764C69.8434 16.2409 66.1493 16.3319 66.1441 16.0674ZM161.416 13.7721C161.79 12.8051 162.184 11.7942 162.293 11.5256C162.473 11.0802 162.563 11.2259 163.319 13.186C164.047 15.0709 164.406 15.7971 164.192 16.0697C164.019 16.29 163.471 16.214 162.441 16.214C160.634 16.214 160.474 16.1843 160.599 15.8721C160.674 15.684 161.042 14.7391 161.416 13.7721ZM186.379 15.953C186.379 15.8094 186.782 14.6613 187.275 13.4017C187.768 12.1421 188.196 11.1388 188.226 11.172C188.339 11.2962 190.075 15.8637 190.075 16.0352C190.075 16.1335 189.244 16.214 188.227 16.214C186.815 16.214 186.379 16.1524 186.379 15.953ZM123.734 15.8233V12.5023H111.088V15.8233H123.734ZM123.734 21.8791V18.5581H111.088V21.8791H123.734ZM22.4125 28.5209L18.3966 24.5163C16.1879 22.3137 14.3179 20.5116 14.2411 20.5116C14.1642 20.5116 12.3082 22.3137 10.1166 24.5163L6.13183 28.5209H10.3734L14.2634 24.5847L18.197 28.5209H22.4125ZM99.2197 34.6103C99.2176 34.2038 98.3971 33.2331 97.8329 32.9696C95.7225 31.9841 93.6067 32.607 92.6925 34.4834C92.2425 35.4066 92.1805 35.7307 92.2756 36.6566C92.4081 37.945 93.0902 39.0971 94.0155 39.5949C94.4281 39.8172 95.0937 39.9379 95.9273 39.9422C96.9789 39.9477 97.3326 39.8621 97.9168 39.4605C98.7267 38.9039 99.4088 37.8072 99.117 37.531C98.803 37.2339 97.6641 37.0567 97.6641 37.305C97.6641 37.4259 97.4491 37.7404 97.1865 38.0041C96.8225 38.3698 96.5032 38.4837 95.8419 38.4837C95.1127 38.4837 94.895 38.3882 94.4713 37.8826C93.5279 36.7568 93.9991 34.3816 95.2275 34.0722C96.0355 33.8684 97.0248 34.1542 97.4259 34.707C97.7724 35.1847 97.8359 35.2007 98.5073 34.9782C98.8995 34.8481 99.2201 34.6826 99.2197 34.6103ZM45.5247 39.7041C45.5247 39.6232 44.8834 38.0188 44.0996 36.139L42.6745 32.7209L41.1473 32.6133L39.7855 35.878C39.0364 37.6736 38.3608 39.302 38.2839 39.497C38.161 39.809 38.2544 39.8512 39.0682 39.8512C39.916 39.8512 40.0102 39.8029 40.2123 39.2651C40.4306 38.6843 40.4462 38.6791 41.9187 38.6791C43.3951 38.6791 43.4062 38.683 43.6084 39.2651C43.7928 39.7967 43.8916 39.8512 44.6683 39.8512C45.1393 39.8512 45.5247 39.7849 45.5247 39.7041ZM52.0851 37.2011C52.0483 37.3013 51.6011 36.3124 51.0914 35.0034L50.1643 32.6233H49.3036C48.8303 32.6233 48.4457 32.6891 48.449 32.7698C48.4525 32.8504 49.0883 34.4547 49.862 36.3349L51.2688 39.7535H52.7575L54.1977 36.2372C54.9897 34.3033 55.6386 32.6942 55.6395 32.6614C55.6405 32.6287 55.2353 32.6287 54.7388 32.6614L53.8362 32.7209L52.9942 34.8698C52.531 36.0516 52.1219 37.1006 52.0851 37.2011ZM58.901 35.4558C58.7315 34.8112 58.4944 33.91 58.3741 33.4535C58.1578 32.6324 58.1457 32.6233 57.2813 32.6233C56.7559 32.6233 56.3744 32.7205 56.3247 32.8674C56.1919 33.2605 54.8631 39.4245 54.8631 39.6478C54.8631 39.7597 55.2086 39.8512 55.6308 39.8512H56.3985L56.8372 37.8977C57.0784 36.8233 57.331 35.9442 57.3981 35.9442C57.4652 35.9442 57.7648 36.8233 58.0636 37.8977L58.607 39.8512H60.1035L61.4068 35.6512L61.8326 37.507C62.0671 38.5277 62.2581 39.4728 62.2573 39.607C62.2564 39.7664 62.5601 39.8512 63.1315 39.8512C63.613 39.8512 64.0069 39.8197 64.0069 39.7812C64.0069 39.7429 63.6567 38.1481 63.2287 36.2372C62.8007 34.3263 62.4505 32.7268 62.4505 32.6824C62.4505 32.6381 62.0412 32.6287 61.5408 32.6614L60.6311 32.7209L60.0473 34.8254C59.7263 35.9831 59.4062 36.8621 59.3364 36.7789C59.2663 36.6959 59.0704 36.1005 58.901 35.4558ZM66.5361 38.4837V32.6233H64.9797V39.8512H70.038V38.4837H66.5361ZM72.3372 35.3888L70.6864 32.7209L69.6631 32.6614C68.8621 32.6145 68.673 32.6571 68.7929 32.8567C68.8769 32.997 69.4979 33.9633 70.1728 35.0044L71.3998 36.8971V39.8512H73.1508V36.9078L74.5126 34.8698C75.2616 33.7489 75.8745 32.7848 75.8745 32.7274C75.8745 32.6701 75.4467 32.6233 74.9239 32.6233H73.9733L72.3372 35.3888ZM79.8655 34.123C80.3057 33.4918 80.2184 33.2161 79.4799 32.9063C77.2933 31.989 75.3373 33.5178 76.3494 35.3533C76.5939 35.7969 76.5692 35.8905 76.0507 36.4834C75.2992 37.3429 75.2531 38.659 75.95 39.3587C76.6039 40.0153 77.704 40.1829 78.7883 39.7914C79.3486 39.5892 79.731 39.5431 79.8507 39.6632C79.9536 39.7666 80.4655 39.8512 80.988 39.8512H81.9382L81.3287 39.0786C80.7398 38.3317 80.7293 38.2862 81.0205 37.7207C81.4042 36.976 81.4022 36.6029 81.0141 36.4535C80.4344 36.23 80.0194 36.3351 79.8342 36.7521C79.6612 37.1411 79.5805 37.0874 78.6371 35.9536C77.6161 34.7268 77.3961 34.121 77.9005 33.9264C78.0519 33.8682 78.491 33.9817 78.876 34.1788C79.5678 34.533 79.5799 34.5324 79.8655 34.123ZM87.8319 36.6635C89.3844 35.5279 89.0078 33.3312 87.1728 32.8194C86.7903 32.7127 85.6238 32.625 84.5806 32.6244L82.6837 32.6233V39.8512H84.4347V37.3116H85.0067C85.4786 37.3116 85.7074 37.4968 86.3152 38.37C86.7204 38.9522 87.2967 39.5736 87.5959 39.7511C88.12 40.0619 88.1613 40.0557 88.7245 39.5798L89.3091 39.0858L88.8296 38.7703C88.5656 38.5966 88.1113 38.1407 87.82 37.7572L87.2901 37.0596L87.8319 36.6635ZM84.4347 35.7488V34.186H85.5631C86.7292 34.186 87.1584 34.405 87.1584 34.9997C87.1584 35.4904 86.559 35.7488 85.4203 35.7488H84.4347ZM102.596 40.0465C105.254 40.0465 106.401 36.4918 104.252 34.911C103.516 34.3695 102.197 34.2788 101.364 34.7125C99.3374 35.768 99.2672 38.6855 101.246 39.6472C101.697 39.8668 102.305 40.0465 102.596 40.0465ZM111.234 34.6641C110.769 34.9075 110.629 34.9075 110.164 34.6641C109.579 34.3576 109.061 34.3263 108.462 34.5611C108.249 34.6447 107.702 34.6711 107.246 34.6195L106.419 34.526V39.8512H107.733L107.816 38.1104C107.905 36.2376 108.123 35.7488 108.868 35.7488C109.532 35.7488 109.726 36.2982 109.726 38.1778V39.8512H111.088L111.091 38.3372C111.094 36.6158 111.373 35.8768 112.055 35.7791C112.811 35.6709 113.034 36.205 113.034 38.1303V39.8512H114.59L114.59 38.0442C114.589 36.0208 114.257 35.0501 113.423 34.6312C112.776 34.3066 111.891 34.3199 111.234 34.6641ZM120.353 39.2091C121.455 38.0022 121.375 35.7951 120.198 34.9129C119.532 34.4134 118.321 34.3017 117.654 34.6779C117.351 34.8491 117.119 34.8926 117.119 34.7783C117.119 34.6674 116.813 34.5767 116.438 34.5767H115.757V42H117.119V40.8148C117.119 39.6685 117.133 39.6347 117.557 39.7892C117.797 39.877 118.384 39.9369 118.86 39.9225C119.585 39.9004 119.828 39.7844 120.353 39.2091ZM126.652 37.0924C126.652 35.4709 126.456 35.0284 125.573 34.6578C124.352 34.146 122.644 34.483 122.195 35.3241C122.016 35.6619 122.068 35.7406 122.601 35.9272C123.094 36.0995 123.278 36.0839 123.538 35.8477C123.958 35.4662 124.598 35.4726 124.986 35.8623C125.425 36.3028 125.191 36.5302 124.3 36.5302C123.326 36.5302 122.272 36.9641 121.998 37.4777C121.144 39.0803 123.036 40.5892 124.913 39.8019C125.513 39.5503 125.644 39.5519 126.039 39.8154C126.461 40.0965 126.513 40.0809 126.937 39.5464C127.375 38.9955 127.377 38.9715 127.02 38.7203C126.719 38.5083 126.652 38.2137 126.652 37.0924ZM132.878 37.7133C132.878 35.7774 132.836 35.5269 132.439 35.0639C131.974 34.5201 130.667 34.215 130.19 34.5388C130.05 34.6344 129.503 34.6707 128.975 34.6197L128.014 34.5271V39.8512H129.57V38.1069C129.57 36.2161 129.814 35.6719 130.611 35.7873C131.231 35.8772 131.51 36.6648 131.513 38.3372L131.516 39.8512H132.878V37.7133ZM136.354 37.3099C136.287 37.3108 135.98 36.6965 135.673 35.9448L135.115 34.5781L134.288 34.5773C133.833 34.5769 133.461 34.6098 133.461 34.6502C133.461 34.7229 133.863 35.6396 134.975 38.1079L135.555 39.3927L135.099 40.4521C134.49 41.8713 134.505 42 135.286 42C135.647 42 136.029 41.8902 136.134 41.7558C136.28 41.5693 137.902 37.7076 139.052 34.8084C139.129 34.6148 138.945 34.5668 138.302 34.6131L137.45 34.6744L136.964 35.9913C136.696 36.7156 136.422 37.3091 136.354 37.3099ZM41.1051 36.8721C41.1584 36.7379 41.3537 36.2507 41.5393 35.7897C41.7251 35.3285 41.902 34.9768 41.9327 35.0083C41.9634 35.0395 42.1629 35.5267 42.3761 36.0907L42.7636 37.1163H41.886C41.2621 37.1163 41.0364 37.0458 41.1051 36.8721ZM102.611 38.6791C101.492 38.6791 100.939 37.0583 101.757 36.1765C101.975 35.9413 102.363 35.7488 102.618 35.7488C103.167 35.7488 103.89 36.582 103.89 37.214C103.89 37.851 103.167 38.6791 102.611 38.6791ZM117.119 37.214C117.119 36.9743 117.301 36.5466 117.522 36.2636C118.299 35.2726 119.531 35.8772 119.531 37.2489C119.531 38.0028 118.939 38.6791 118.279 38.6791C117.828 38.6791 117.119 37.783 117.119 37.214ZM77.2544 38.4935C76.7626 38.2292 76.742 37.9401 77.1714 37.3245L77.4955 36.86L78.0468 37.4796C78.3501 37.8203 78.5982 38.1841 78.5982 38.2878C78.5982 38.5929 77.6962 38.7308 77.2544 38.4935ZM124.021 38.6791C123.5 38.6791 123.259 38.4027 123.419 37.986C123.489 37.8029 123.805 37.7023 124.311 37.7023C124.951 37.7023 125.096 37.7705 125.096 38.0721C125.096 38.4755 124.735 38.6791 124.021 38.6791Z" fill="#AEAEB2"/>
</svg>
