<svg width="135" height="43" viewBox="0 0 135 43" fill="none" xmlns="http://www.w3.org/2000/svg">
<path fill-rule="evenodd" clip-rule="evenodd" d="M48.3323 35.3248V25.7312C48.3323 20.4313 43.9081 16.1115 38.4893 16.1115C35.6593 16.1115 33.0925 17.2937 31.296 19.1801V18.4998C31.296 17.1272 30.1333 15.9902 28.7292 15.9902H28.6439V35.3248H28.7292C30.1333 35.3248 31.296 34.1878 31.296 32.8152V25.7312C31.296 21.8491 34.5185 18.6948 38.4893 18.6948C42.4601 18.6948 45.6826 21.8491 45.6826 25.7312V32.8152C45.6826 34.1878 46.8453 35.3248 48.2494 35.3248H48.3323ZM64.4617 25.3054C64.452 26.0191 64.4617 26.7327 64.452 27.4463C64.4422 28.0363 64.4106 28.6643 64.2082 29.2233C63.2576 31.7781 59.16 32.9793 56.698 32.7724C56.0423 32.7177 55.3574 32.6059 54.7334 32.3656C52.325 31.4189 52.2616 28.6619 54.375 27.325C54.8504 27.0253 55.3891 26.8041 55.9278 26.6661C56.2861 26.5733 56.6566 26.4924 57.0149 26.4282C58.2093 26.2165 59.4135 26.1618 60.6177 26.0476C61.9169 25.9239 63.1211 25.6932 64.335 25.215L64.4617 25.1627V25.3054ZM66.0876 35.3082C66.3094 35.3082 66.541 35.3082 66.7628 35.3082H67.0578V35.018C67.0578 30.1676 67.0578 25.3173 67.0578 20.467V20.448C66.541 15.5263 59.1283 15.5168 58.6725 18.0787V18.3951L58.9894 18.3666C60.1619 18.2643 61.4196 18.3237 62.5166 18.7924C64.0157 19.4322 65.2954 21.1545 64.0059 22.6364C63.1406 23.6355 60.9102 23.5499 59.6768 23.6617C57.8071 23.833 54.9674 24.0994 53.3196 24.9676C51.5036 25.9168 50.2458 27.5986 50.2872 29.6871C50.3408 32.5274 52.0618 34.1711 54.3433 34.9062C58.0095 36.0884 61.778 35.1892 64.4617 32.4156L64.6299 32.2419V32.4822C64.6299 32.9413 64.6299 33.398 64.6299 33.8571C64.6299 34.6564 65.2856 35.3082 66.0876 35.3082ZM89.074 25.7479C89.074 20.4004 84.6888 16.121 79.231 16.121C76.0549 16.121 73.4223 17.1676 71.6307 18.9922V18.4998C71.6307 17.1272 70.4728 15.9902 69.0663 15.9902H68.9835L69.0566 42.2351C70.5045 42.2351 71.7038 41.1052 71.7038 39.7327V25.7479C71.7038 21.3757 74.5996 18.7043 79.231 18.7043C83.2019 18.7043 86.4268 21.8586 86.4268 25.7479C86.4268 29.5944 83.1994 32.751 79.231 32.751C77.0397 32.751 74.9702 31.8637 73.5637 30.3627C73.4808 30.484 73.3979 30.6053 73.315 30.7267C72.6545 31.985 73.1078 33.5598 74.4314 34.2449C75.8794 34.9704 77.5345 35.3343 79.2286 35.3343C84.6912 35.3343 89.074 31.0549 89.074 25.7479ZM92.862 27.6152C93.7664 31.9779 97.7591 35.1512 102.512 35.3129C107.907 35.4985 111.578 31.4688 113.957 27.0277C113.947 26.9658 115.361 35.1464 124.09 35.1464C127.715 35.1464 131.049 33.3314 132.882 30.5459C131.756 29.7395 130.216 29.8203 129.216 30.7481C127.841 31.878 126.008 32.5702 124.09 32.5631C121.282 32.5535 118.808 31.1524 117.508 29.1043C116.134 26.9373 116.212 24.0661 117.606 21.9252C118.939 19.8818 121.343 18.5212 124.09 18.5212C127.632 18.5212 130.591 20.7953 131.425 23.8472C131.466 24.0899 131.217 24.2921 130.966 24.2921H123.361C122.198 24.2921 121.248 25.2174 121.248 26.3545V26.8754H131.632C133.048 26.835 134.423 25.8264 134.257 24.4134C133.757 19.6178 129.34 15.9402 124.09 15.9402C121.333 15.9402 118.834 16.9559 116.994 18.6139C112.463 22.6959 110.049 33.1126 102.512 32.732C98.5465 32.5321 95.3166 29.5777 95.3166 25.7289C95.3166 21.8396 98.5416 18.6853 102.512 18.6853C104.745 18.6853 106.773 19.6535 108.097 21.2758C109.006 22.1631 110.371 22.3248 111.446 21.6802C109.874 18.3237 106.442 16.1043 102.512 16.1043C97.7567 16.1043 93.7664 19.4322 92.862 23.833V18.8471C92.862 17.4341 91.6213 16.3446 90.2148 16.3446H90.1734V33.015C90.1734 34.3876 91.3312 35.5175 92.7791 35.5175H92.862V27.6152ZM92.9449 13.7375C92.9449 12.9715 92.2843 12.3245 91.497 12.3245C90.7121 12.3245 90.0905 12.9691 90.0905 13.7375C90.0905 14.5034 90.7121 15.11 91.497 15.11C92.2819 15.11 92.9449 14.5058 92.9449 13.7375Z" fill="#AEAEB2"/>
<path fill-rule="evenodd" clip-rule="evenodd" d="M5.93793 27.7293L5.96231 24.9367C5.97206 23.9566 5.71611 23.1121 5.21885 22.4009C5.43823 22.0917 5.61861 21.7396 5.75511 21.3447C5.89162 20.9498 5.96231 20.4693 5.96231 19.9056V14.6961C5.96231 14.2798 6.07931 13.9753 6.31332 13.7802C6.54733 13.5852 6.86909 13.4876 7.28348 13.4876H8.76797V10.7925H7.28348C6.67896 10.7925 6.12806 10.89 5.63324 11.0851C5.13841 11.2801 4.70939 11.5489 4.34376 11.8891C3.98056 12.2316 3.6978 12.6408 3.49791 13.1165C3.29803 13.5923 3.19809 14.1204 3.19809 14.6961V19.9079C3.19809 20.2291 3.12009 20.5145 2.96165 20.7619C2.8032 21.0093 2.61064 21.2353 2.38394 21.4351C2.15725 21.6373 1.90617 21.8205 1.63073 21.9894C1.35528 22.1559 1.10909 22.3271 0.887266 22.5032C1.14809 22.6768 1.41622 22.8362 1.69167 22.9766C1.96711 23.1169 2.21818 23.2739 2.44488 23.4499C2.67157 23.6236 2.85439 23.8282 2.9909 24.0637C3.1274 24.2992 3.19809 24.5894 3.19809 24.939C3.19809 25.7954 3.12253 27.3701 3.14203 28.8474C3.21272 34.4351 10.6668 39.4852 15.5664 38.8287C10.857 37.4276 5.87699 34.4946 5.93793 27.7293ZM13.4774 34.2329V33.2838C13.4774 32.3798 14.1648 31.6281 15.0862 31.5259C15.4274 31.4878 15.7346 31.4069 15.932 31.2428C16.166 31.0477 16.283 30.7361 16.283 30.3079V24.9367C16.283 23.9566 16.5317 23.1121 17.0241 22.4009C16.8047 22.0917 16.6243 21.7396 16.4878 21.3447C16.3513 20.9498 16.2806 20.4693 16.2806 19.9056V14.6961C16.2806 14.2798 16.1636 13.9753 15.9296 13.7802C15.6956 13.5852 15.3738 13.4876 14.9594 13.4876H13.4749V10.7925H14.9594C15.5639 10.7925 16.1148 10.89 16.6097 11.0851C17.1045 11.2801 17.5335 11.5489 17.8991 11.8891C18.2623 12.2316 18.5451 12.6408 18.745 13.1165C18.9449 13.5923 19.0448 14.1204 19.0448 14.6961V19.9079C19.0448 20.2291 19.1228 20.5145 19.2813 20.7619C19.4397 21.0093 19.6323 21.2353 19.859 21.4351C20.0857 21.6373 20.3367 21.8205 20.6122 21.9894C20.8876 22.1559 21.1338 22.3271 21.3532 22.5032C21.0924 22.6768 20.8242 22.8362 20.5488 22.9766C20.2733 23.1169 20.0223 23.2739 19.7956 23.4499C19.5689 23.6236 19.3861 23.8282 19.2496 24.0637C19.1131 24.2992 19.0424 24.5894 19.0424 24.939V30.3103C19.0424 30.9002 18.94 31.4331 18.7328 31.9088C18.5256 32.3846 18.2453 32.7985 17.887 33.1458C17.5286 33.4955 17.0996 33.7619 16.5975 33.9498C16.0953 34.1378 15.5493 34.2305 14.9594 34.2305H13.4774V34.2329ZM11.1227 0C11.5663 0 11.9295 0.354437 11.9295 0.787373V6.72955C11.9295 7.16248 11.5663 7.51692 11.1227 7.51692C10.679 7.51692 10.3158 7.16248 10.3158 6.72955V0.787373C10.3134 0.354437 10.6766 0 11.1227 0ZM7.07385 38.1103C10.2768 40.2274 13.6651 40.1061 16.9363 39.1356C14.9107 41.5738 7.76612 42.0876 7.07385 38.1103ZM8.28289 41.1528C8.98491 43.8693 13.6894 43.2936 15.1764 41.3335C12.9265 42.2993 10.2841 42.4492 8.28289 41.1528ZM21.4263 4.82177C21.7871 5.07392 21.87 5.57108 21.6116 5.92314L19.1472 9.27483C18.8888 9.62689 18.3793 9.70777 18.0186 9.45562C17.6578 9.20347 17.5749 8.7063 17.8333 8.35663L20.2977 5.00494C20.5561 4.65288 21.0656 4.56962 21.4263 4.82177ZM0.819013 4.82177C0.458251 5.07392 0.375374 5.57108 0.633757 5.92314L3.09815 9.27483C3.35653 9.62689 3.86599 9.70777 4.22675 9.45562C4.58751 9.20347 4.67039 8.7063 4.41201 8.35663L1.94518 5.00256C1.68679 4.65288 1.17734 4.56962 0.819013 4.82177Z" fill="#AEAEB2"/>
</svg>
